<svg xmlns="http://www.w3.org/2000/svg" xmlns:xlink="http://www.w3.org/1999/xlink" version="1.1" x="0px" y="0px" viewBox="0 0 100 125" enable-background="new 0 0 100 100" xml:space="preserve"><g><g><g><g><g><g><path d="M52.3,84.3c0.9,1.4,2,2.7,3.4,3.6c2,1.4,4.3,2.2,6.9,2.2c5.6,0,10.2-3.8,11.6-8.9c0.3-1,0.4-2,0.4-3.1        c0-0.4,0-0.7-0.1-1.1c-0.4-5.2-4.2-9.4-9-10.6c-0.9-0.2-1.9-0.4-2.9-0.4c-0.4,0-0.8,0-1.3,0.1c-0.2,0-0.4,0-0.6,0.1        c-5.8,0.9-10.2,5.9-10.2,11.9C50.6,80.4,51.2,82.5,52.3,84.3z M48,84.6c-0.9-2-1.4-4.2-1.4-6.5c0-7.3,4.9-13.4,11.5-15.4        c0.4-0.1,0.9-0.2,1.3-0.3c-1.6-2.6-3.5-4.6-5.6-6.1c-1-0.8-2.1-1.4-3.2-1.8c-1.3-0.5-2.5-0.8-3.7-0.8c-1,0-2.1,0.2-3.1,0.6        c-1.1,0.4-2.2,0.9-3.3,1.7c-5.1,3.4-9.8,10.7-9.8,20.7c0,0.9,0.1,1.7,0.5,2.4c0.3,0.8,0.8,1.4,1.4,2c0.7,0.6,1.6,1.2,2.7,1.6        C38.5,84.1,43.3,84.8,48,84.6z M81.5,72c0,2.6-1,4.8-2.8,6.6c0,0,0,0.1-0.1,0.1c-0.3,8.6-7.3,15.5-16,15.5        c-4.8,0-9.1-2.1-12-5.4C42.7,89.4,33.8,88,29.8,84c-0.4-0.4-0.7-0.8-1.1-1.2c-5.2-0.3-10.1-1.7-12.7-4.3        c-1.8-1.8-2.8-4-2.8-6.6c0-5.4,1.8-11.4,4.8-16c1.5-2.3,3.2-4.1,5.1-5.5c0.3-0.3,0.4-0.7,0.5-1.1c0.1-0.6-0.1-1.3-0.5-1.8        c-1.8-2-3-4.7-3-7.7c0-6.3,5.1-11.4,11.4-11.4c2.9,0,5.5,1.1,7.5,2.9c2.2-1.8,4.9-2.8,7.9-2.8c3.2,0,6.1,1.2,8.3,3.1        c2-2,4.8-3.2,7.9-3.2c6.3,0,11.4,5.1,11.4,11.4c0,2.9-1.1,5.6-3,7.7c-0.4,0.6-0.5,1.2-0.5,1.8c0.1,0.4,0.2,0.8,0.5,1.1        c1.9,1.4,3.6,3.2,5.1,5.5C79.7,60.6,81.5,66.6,81.5,72z M77.8,73c0.1-0.3,0.1-0.7,0.1-1.1c0-12.8-8.6-20.7-14.7-20.7        c-1.9,0-4.1,0.8-6.2,2.2c1.8,1.4,3.5,3.3,4.9,5.5c0.7,1,1.3,2.1,1.8,3.2C70.3,62.6,75.8,67,77.8,73z M69.5,44.4        c0.9-1.3,1.4-2.8,1.4-4.5c0-4.3-3.5-7.8-7.8-7.8c-2.2,0-4.1,0.9-5.5,2.3c1.2,2,2,4.3,2,6.7c0,1.8-0.4,3.4-1,5        c1.3,1,2.9,1.5,4.6,1.5c2.2,0,4.2-0.9,5.6-2.4C69,45,69.2,44.7,69.5,44.4z M55.4,40.9c0-4.7-3.8-8.5-8.5-8.5        c-4.7,0-8.5,3.8-8.5,8.5s3.8,8.5,8.5,8.5C51.6,49.4,55.4,45.6,55.4,40.9z M34.4,41.2c0-2.7,0.8-5.1,2.2-7.1        c-1.4-1.2-3.1-1.9-5.1-1.9c-4.3,0-7.8,3.5-7.8,7.8c0,1.7,0.5,3.2,1.5,4.5c0.3,0.3,0.5,0.6,0.7,0.9c1.4,1.5,3.4,2.4,5.6,2.4        c1.5,0,2.9-0.4,4-1.2C34.8,44.9,34.4,43.1,34.4,41.2z M32,59c1.5-2.4,3.3-4.3,5.3-5.8c-1.9-1.3-4-2-5.8-2        c-6.1,0-14.7,7.9-14.7,20.7c0,1.6,0.5,2.9,1.7,4c1.6,1.5,4.8,2.5,8.4,2.9c-0.2-0.7-0.2-1.4-0.2-2.2C26.7,70.7,28.7,64.1,32,59        z"/></g></g></g></g></g></g><g><path d="M61.5,74.6c0-0.9,0.5-1.5,1.4-1.5c0.9,0,1.4,0.6,1.4,1.5v3.2h3.2c0.9,0,1.5,0.5,1.5,1.4s-0.6,1.4-1.5,1.4h-3.2v3.2   c0,0.9-0.5,1.5-1.4,1.5c-0.9,0-1.4-0.6-1.4-1.5v-3.2h-3.2c-0.9,0-1.5-0.6-1.5-1.4c0-0.9,0.6-1.4,1.5-1.4h3.2V74.6z"/></g><text x="0" y="115" fill="#000000" font-size="5px" font-weight="bold" font-family="'Helvetica Neue', Helvetica, Arial-Unicode, Arial, Sans-serif">Created by Mrfa Studio</text><text x="0" y="120" fill="#000000" font-size="5px" font-weight="bold" font-family="'Helvetica Neue', Helvetica, Arial-Unicode, Arial, Sans-serif"></text></svg>