<svg xmlns="http://www.w3.org/2000/svg" xmlns:xlink="http://www.w3.org/1999/xlink" version="1.1" x="0px" y="0px" viewBox="0 0 70 87.5" enable-background="new 0 0 70 70" xml:space="preserve"><g display="none"><rect x="2.86" y="2.86" display="inline" fill="#000000" stroke="#D1D3D4" stroke-miterlimit="10" width="64.28" height="64.28"/></g><g><g><g><g><path d="M42.367,61.561H8.075c-1.961,0-3.634-1.401-3.977-3.333c-1.631-9.171,4.885-14.286,8.558-15.708      c2.909-1.229,7.405-1.983,12.274-2.041c0.069-0.003,0.137-0.005,0.206-0.005h0.168c0.069,0,0.137,0.001,0.206,0.005      c4.939,0.059,9.336,0.799,12.386,2.086c3.59,1.388,10.078,6.491,8.446,15.665C46.002,60.16,44.33,61.561,42.367,61.561z       M8.908,56.561h32.626c0.737-6.856-5.447-9.336-5.512-9.361c-2.475-1.043-6.42-1.677-10.624-1.722l-0.15-0.006l-0.112,0.002      c-4.298,0.049-8.227,0.676-10.604,1.68C14.4,47.207,8.172,49.705,8.908,56.561z"/></g></g></g><g><path d="M63.654,22.008H44.256c-1.381,0-2.5-1.119-2.5-2.5s1.119-2.5,2.5-2.5h19.397c1.381,0,2.5,1.119,2.5,2.5    S65.035,22.008,63.654,22.008z"/></g><g><path d="M63.654,53.532h-7.397c-1.381,0-2.5-1.119-2.5-2.5s1.119-2.5,2.5-2.5h7.397c1.381,0,2.5,1.119,2.5,2.5    S65.035,53.532,63.654,53.532z"/></g><g><path d="M63.654,37.77H42.256c-1.381,0-2.5-1.119-2.5-2.5s1.119-2.5,2.5-2.5h21.398c1.381,0,2.5,1.119,2.5,2.5    S65.035,37.77,63.654,37.77z"/></g><g><path d="M24.242,37.232c-5.79,0-10.5-4.71-10.5-10.5s4.71-10.5,10.5-10.5s10.5,4.71,10.5,10.5S30.032,37.232,24.242,37.232z     M24.242,20.769c-3.288,0-5.963,2.675-5.963,5.963s2.675,5.963,5.963,5.963s5.963-2.675,5.963-5.963S27.53,20.769,24.242,20.769z"/></g></g><text x="0" y="85" fill="#000000" font-size="5px" font-weight="bold" font-family="'Helvetica Neue', Helvetica, Arial-Unicode, Arial, Sans-serif">Created by Richa</text><text x="0" y="90" fill="#000000" font-size="5px" font-weight="bold" font-family="'Helvetica Neue', Helvetica, Arial-Unicode, Arial, Sans-serif">from the Noun Project</text></svg>