<svg xmlns="http://www.w3.org/2000/svg" version="1.1" viewBox="-5.0 -10.0 110.0 135.0">
 <path d="m71.875 81.25v9.375c-0.003906 3.4492-2.8008 6.2461-6.25 6.25h-56.25c-3.4492-0.003906-6.2461-2.8008-6.25-6.25v-53.125c0.003906-3.4492 2.8008-6.2461 6.25-6.25h58.082l-7.9219-7.9219c-1.2227-1.2227-1.2227-3.1992 0-4.418 1.2188-1.2227 3.1953-1.2227 4.418 0l13.258 13.254c0.58594 0.58594 0.91406 1.3828 0.91406 2.2109s-0.32812 1.625-0.91406 2.2109l-13.258 13.258v-0.003906c-1.2227 1.2227-3.1992 1.2227-4.418 0-1.2227-1.2188-1.2227-3.1953 0-4.418l7.9219-7.9219h-58.082v53.125h56.25v-9.375c0-1.7266 1.3984-3.125 3.125-3.125s3.125 1.3984 3.125 3.125zm18.75-78.125h-56.25c-3.4492 0.003906-6.2461 2.8008-6.25 6.25v9.375c0 1.7266 1.3984 3.125 3.125 3.125s3.125-1.3984 3.125-3.125v-9.375h56.25v53.125h-58.082l7.9219-7.9219c1.2227-1.2227 1.2227-3.1992 0-4.418-1.2188-1.2227-3.1953-1.2227-4.418 0l-13.258 13.254c-0.58594 0.58594-0.91406 1.3828-0.91406 2.2109s0.32812 1.625 0.91406 2.2109l13.258 13.258v-0.003906c1.2227 1.2227 3.1992 1.2227 4.418 0 1.2227-1.2188 1.2227-3.1953 0-4.418l-7.9219-7.9219h58.082c3.4492-0.003906 6.2461-2.8008 6.25-6.25v-53.125c-0.003906-3.4492-2.8008-6.2461-6.25-6.25z"/>
<text x="0.0" y="117.5" font-size="5.0" font-weight="bold" font-family="Arbeit Regular, Helvetica, Arial-Unicode, Arial, Sans-serif" fill="#000000">Created by Ricons</text><text x="0.0" y="122.5" font-size="5.0" font-weight="bold" font-family="Arbeit Regular, Helvetica, Arial-Unicode, Arial, Sans-serif" fill="#000000">from Noun Project</text></svg>